<svg xmlns="http://www.w3.org/2000/svg" viewBox="0 0 1024 1024" version="1.1"><path d="M511.68 158.592C411.84 71.36 264.192 53.504 149.568 151.424 25.536 257.408 7.488 435.968 105.6 562.176c33.92 43.648 97.024 107.008 160.32 167.36 64 60.992 130.432 121.152 172.8 158.912l0.896 0.832c6.976 6.208 13.888 12.352 20.288 17.216 7.168 5.44 16 11.072 27.264 14.464 15.872 4.736 33.152 4.736 49.088 0 11.2-3.392 20.032-8.96 27.264-14.464 6.4-4.864 13.312-11.008 20.224-17.28l0.96-0.768c42.304-37.76 108.8-97.92 172.8-158.912 63.296-60.352 126.4-123.712 160.32-167.36 97.728-125.76 82.496-305.6-44.416-411.008-115.904-96.384-262.016-79.808-361.728 7.488z m-32.384 88.32c-72.768-85.12-188.416-104-274.304-30.592-89.728 76.672-101.824 203.584-32 293.44 29.44 37.888 88.064 97.216 151.808 157.952 62.976 60.096 128.704 119.488 170.752 156.992 8.256 7.36 12.608 11.2 15.936 13.76l0.192 0.128 0.256-0.128c3.328-2.56 7.68-6.4 16-13.76 41.984-37.504 107.712-96.896 170.688-156.992 63.744-60.8 122.368-120.064 151.808-157.952 70.208-90.304 59.008-217.792-31.552-293.056-88.192-73.28-202.304-54.528-274.752 30.144a42.688 42.688 0 0 1-64.832 0zM472.32 320.064c17.216 1.216 32 12.672 37.44 29.056l52.736 158.272 17.92-35.84A42.688 42.688 0 0 1 618.688 448h42.624a42.688 42.688 0 1 1 0 85.312h-16.256l-52.224 104.448a42.688 42.688 0 0 1-78.656-5.632L461.44 473.856l-17.92 35.84a42.688 42.688 0 0 1-38.208 23.68h-42.624a42.688 42.688 0 0 1 0-85.376h16.256l52.224-104.384a42.688 42.688 0 0 1 41.216-23.488z" p-id="3527"></path></svg>