<svg xmlns="http://www.w3.org/2000/svg" viewBox="0 0 1024 1024" version="1.1"><path d="M512 128a85.312 85.312 0 1 0 0 170.688A85.312 85.312 0 0 0 512 128zM341.312 213.312a170.688 170.688 0 1 1 213.376 165.312v515.008a384 384 0 0 0 338.944-338.944h-82.944a42.688 42.688 0 1 1 0-85.376h128c23.552 0 42.624 19.136 42.624 42.688A469.376 469.376 0 0 1 42.688 512a42.688 42.688 0 0 1 42.624-42.688h128a42.688 42.688 0 0 1 0 85.376H130.368a384 384 0 0 0 338.944 338.944V378.624c-73.6-18.944-128-85.76-128-165.312z" p-id="5012"></path></svg>
